<svg width="38" height="38" viewBox="0 0 38 38" fill="none" xmlns="http://www.w3.org/2000/svg">
<rect width="38" height="38" rx="10" fill="#76B8C3" fill-opacity="0.3"/>
<path d="M19 12.25C22.7125 12.25 25.75 15.2875 25.75 19C25.75 22.7125 22.7125 25.75 19 25.75C15.2875 25.75 12.25 22.7125 12.25 19C12.25 15.2875 15.2875 12.25 19 12.25ZM19 11.125C14.6688 11.125 11.125 14.6688 11.125 19C11.125 23.3313 14.6688 26.875 19 26.875C23.3313 26.875 26.875 23.3313 26.875 19C26.875 14.6688 23.3313 11.125 19 11.125Z" fill="#027C90"/>
<path d="M23.5 18.4375H19.5625V14.5H18.4375V18.4375H14.5V19.5625H18.4375V23.5H19.5625V19.5625H23.5V18.4375Z" fill="#027C90"/>
</svg>
