<svg width="35" height="35" viewBox="0 0 35 35" fill="none" xmlns="http://www.w3.org/2000/svg">
<path d="M0 10C0 4.47715 4.47715 0 10 0H35V25C35 30.5228 30.5228 35 25 35H0V10Z" fill="#D6EAED"/>
<path d="M23.5031 20.2083L21.3864 19.9667C21.1375 19.9374 20.8852 19.965 20.6485 20.0473C20.4118 20.1295 20.1968 20.2644 20.0197 20.4417L18.4864 21.975C16.1207 20.7719 14.1979 18.849 12.9947 16.4833L14.5364 14.9417C14.8947 14.5833 15.0697 14.0833 15.0114 13.575L14.7697 11.475C14.7225 11.0685 14.5274 10.6935 14.2216 10.4215C13.9158 10.1495 13.5207 9.99951 13.1114 10H11.6697C10.7281 10 9.94473 10.7833 10.0031 11.725C10.4447 18.8417 16.1364 24.525 23.2447 24.9667C24.1864 25.025 24.9697 24.2417 24.9697 23.3V21.8583C24.9781 21.0167 24.3447 20.3083 23.5031 20.2083Z" fill="#027C90"/>
</svg>
