<svg width="84" height="84" viewBox="0 0 84 84" fill="none" xmlns="http://www.w3.org/2000/svg">
<path d="M42.0002 0.325195C65.0169 0.325195 83.6752 18.9835 83.6752 42.0002C83.6752 65.0127 65.0127 83.6669 42.0002 83.6669C18.9835 83.671 0.325195 65.0127 0.325195 42.0002C0.325195 18.9835 18.9835 0.325195 42.0002 0.325195ZM42.0002 6.57519C37.3161 6.52439 32.6684 7.40311 28.3261 9.16049C23.9838 10.9179 20.0332 13.519 16.7029 16.8134C13.3727 20.1078 10.7288 24.0299 8.92445 28.3529C7.12008 32.6758 6.19101 37.3137 6.19101 41.9981C6.19101 46.6825 7.12008 51.3204 8.92445 55.6434C10.7288 59.9663 13.3727 63.8885 16.7029 67.1828C20.0332 70.4772 23.9838 73.0783 28.3261 74.8357C32.6684 76.5931 37.3161 77.4718 42.0002 77.421C51.3284 77.3199 60.2402 73.5433 66.8007 66.9112C73.3613 60.2791 77.041 51.3269 77.041 41.9981C77.041 32.6694 73.3613 23.7171 66.8007 17.0851C60.2402 10.453 51.3284 6.67637 42.0002 6.57519ZM42.0002 48.2419C48.796 48.2419 55.1669 50.9669 59.8377 55.721C60.1414 56.0102 60.3838 56.3575 60.5505 56.7422C60.7171 57.127 60.8047 57.5414 60.8078 57.9607C60.811 58.38 60.7298 58.7957 60.5689 59.1829C60.4081 59.5702 60.171 59.9211 59.8717 60.2148C59.5724 60.5085 59.2171 60.739 58.8268 60.8924C58.4366 61.0459 58.0195 61.1193 57.6003 61.1083C57.1812 61.0972 56.7685 61.0018 56.3869 60.8279C56.0054 60.654 55.6627 60.4051 55.3794 60.096C53.6354 58.3173 51.5533 56.9053 49.2557 55.9429C46.9581 54.9804 44.4912 54.4871 42.0002 54.4919C39.5029 54.4876 37.03 54.9839 34.7278 55.9514C32.4255 56.919 30.3405 58.3382 28.596 60.1252C28.3104 60.425 27.9679 60.6651 27.5887 60.8314C27.2094 60.9978 26.8009 61.0871 26.3868 61.0941C25.9727 61.1012 25.5614 61.0258 25.1766 60.8725C24.7919 60.7192 24.4415 60.491 24.1458 60.201C23.8501 59.9111 23.6149 59.5653 23.454 59.1837C23.2931 58.8021 23.2097 58.3923 23.2085 57.9782C23.2074 57.5641 23.2886 57.1538 23.4474 56.7713C23.6062 56.3889 23.8394 56.0417 24.1335 55.7502C26.4598 53.3697 29.2391 51.4789 32.3076 50.1894C35.3761 48.8999 38.6717 48.2377 42.0002 48.2419ZM29.5002 28.4585C30.1963 28.4388 30.8892 28.5589 31.5381 28.8117C32.187 29.0645 32.7786 29.4448 33.2779 29.9302C33.7772 30.4156 34.1741 30.9962 34.4451 31.6377C34.7162 32.2791 34.8558 32.9684 34.8558 33.6648C34.8558 34.3611 34.7162 35.0504 34.4451 35.6919C34.1741 36.3334 33.7772 36.9139 33.2779 37.3993C32.7786 37.8847 32.187 38.2651 31.5381 38.5178C30.8892 38.7706 30.1963 38.8907 29.5002 38.871C28.1449 38.8327 26.858 38.2674 25.9129 37.2952C24.9679 36.323 24.4392 35.0206 24.4392 33.6648C24.4392 32.3089 24.9679 31.0066 25.9129 30.0344C26.858 29.0622 28.1449 28.4969 29.5002 28.4585ZM54.5002 28.4585C55.1963 28.4388 55.8892 28.5589 56.5381 28.8117C57.187 29.0645 57.7786 29.4448 58.2779 29.9302C58.7772 30.4156 59.1741 30.9962 59.4452 31.6377C59.7162 32.2791 59.8558 32.9684 59.8558 33.6648C59.8558 34.3611 59.7162 35.0504 59.4452 35.6919C59.1741 36.3334 58.7772 36.9139 58.2779 37.3993C57.7786 37.8847 57.187 38.2651 56.5381 38.5178C55.8892 38.7706 55.1963 38.8907 54.5002 38.871C53.1449 38.8327 51.858 38.2674 50.9129 37.2952C49.9679 36.323 49.4392 35.0206 49.4392 33.6648C49.4392 32.3089 49.9679 31.0066 50.9129 30.0344C51.858 29.0622 53.1449 28.4969 54.5002 28.4585Z" fill="#027C90"/>
</svg>
